<?xml version="1.0" encoding="UTF-8"?>
<svg id="Layer_2" data-name="Layer 2" xmlns="http://www.w3.org/2000/svg" viewBox="0 0 757.39 650.8">
  <defs>
    <style>
      .cls-1 {
        fill: #e2e2e2;
      }

      .cls-1, .cls-2, .cls-3, .cls-4, .cls-5 {
        stroke: #04131e;
        stroke-miterlimit: 10;
        stroke-width: 2px;
      }

      .cls-2 {
        fill: #b7d598;
      }

      .cls-2, .cls-3, .cls-4, .cls-5 {
        stroke-dasharray: 0 50;
      }

      .cls-3 {
        fill: #e0bf9a;
      }

      .cls-4 {
        fill: #a0d6de;
      }

      .cls-5, .cls-6 {
        fill: none;
      }

      .cls-6 {
        stroke: #0e0316;
        stroke-linecap: round;
        stroke-linejoin: round;
      }
    </style>
  </defs>
  <g id="_Слой_1" data-name="Слой 1">
    <g>
      <g>
        <polygon class="cls-4" points="417.66 361.99 417.66 121.43 209.33 1.15 1 121.43 1 361.99 209.33 482.27 417.66 361.99"/>
        <line class="cls-5" x1="1" y1="121.43" x2="209.33" y2="241.71"/>
        <line class="cls-5" x1="417.66" y1="121.43" x2="209.33" y2="241.71"/>
        <line class="cls-5" x1="209.33" y1="482.27" x2="209.33" y2="241.71"/>
      </g>
      <g>
        <polygon class="cls-2" points="573.01 361.68 573.01 271.99 495.34 227.14 417.66 271.99 417.66 361.68 495.34 406.53 573.01 361.68"/>
        <line class="cls-5" x1="417.66" y1="271.99" x2="495.34" y2="316.83"/>
        <line class="cls-5" x1="573.01" y1="271.99" x2="495.34" y2="316.83"/>
      </g>
      <g>
        <polygon class="cls-3" points="756.39 406.57 756.39 255.85 625.86 180.49 495.34 255.85 495.34 406.57 625.86 481.93 756.39 406.57"/>
        <line class="cls-5" x1="495.34" y1="255.85" x2="625.86" y2="331.21"/>
        <line class="cls-5" x1="756.39" y1="255.85" x2="625.86" y2="331.21"/>
        <line class="cls-5" x1="625.86" y1="481.93" x2="625.86" y2="331.21"/>
      </g>
      <g>
        <polygon class="cls-6" points="292.66 482.2 250.96 458.21 209.33 482.34 251.03 506.33 292.66 482.2"/>
        <polygon class="cls-6" points="334.28 458.08 292.58 434.09 250.95 458.22 292.66 482.2 334.28 458.08"/>
        <polygon class="cls-6" points="375.91 433.96 334.2 409.97 292.58 434.09 334.28 458.08 375.91 433.96"/>
        <polygon class="cls-6" points="417.53 409.84 375.83 385.85 334.2 409.97 375.91 433.96 417.53 409.84"/>
        <polygon class="cls-6" points="459.16 385.72 417.45 361.73 375.83 385.85 417.53 409.84 459.16 385.72"/>
        <polygon class="cls-6" points="334.36 506.19 292.66 482.2 251.03 506.33 292.74 530.31 334.36 506.19"/>
        <polygon class="cls-6" points="375.99 482.07 334.28 458.08 292.66 482.21 334.36 506.19 375.99 482.07"/>
        <polygon class="cls-6" points="417.61 457.95 375.91 433.96 334.28 458.08 375.99 482.07 417.61 457.95"/>
        <polygon class="cls-6" points="459.24 433.83 417.53 409.84 375.91 433.96 417.61 457.95 459.24 433.83"/>
        <polygon class="cls-6" points="500.86 409.71 459.16 385.72 417.53 409.84 459.23 433.83 500.86 409.71"/>
        <polygon class="cls-6" points="376.07 530.18 334.36 506.19 292.74 530.32 334.44 554.3 376.07 530.18"/>
        <polygon class="cls-6" points="417.69 506.06 375.99 482.07 334.36 506.19 376.06 530.18 417.69 506.06"/>
        <polygon class="cls-6" points="459.32 481.94 417.61 457.95 375.99 482.07 417.69 506.06 459.32 481.94"/>
        <polygon class="cls-6" points="500.94 457.82 459.24 433.83 417.61 457.95 459.31 481.94 500.94 457.82"/>
        <polygon class="cls-6" points="542.57 433.7 500.86 409.71 459.23 433.83 500.94 457.82 542.57 433.7"/>
        <polygon class="cls-6" points="417.77 554.17 376.07 530.18 334.44 554.3 376.14 578.29 417.77 554.17"/>
        <polygon class="cls-6" points="459.39 530.05 417.69 506.06 376.06 530.18 417.77 554.17 459.39 530.05"/>
        <polygon class="cls-6" points="501.02 505.93 459.32 481.94 417.69 506.06 459.39 530.05 501.02 505.93"/>
        <polygon class="cls-6" points="542.64 481.81 500.94 457.82 459.31 481.94 501.02 505.93 542.64 481.81"/>
        <polygon class="cls-6" points="584.27 457.69 542.56 433.7 500.94 457.82 542.64 481.81 584.27 457.69"/>
        <polygon class="cls-6" points="459.47 578.16 417.77 554.17 376.14 578.29 417.85 602.28 459.47 578.16"/>
        <polygon class="cls-6" points="501.1 554.04 459.39 530.05 417.77 554.17 459.47 578.16 501.1 554.04"/>
        <polygon class="cls-6" points="542.72 529.92 501.02 505.93 459.39 530.05 501.1 554.04 542.72 529.92"/>
        <polygon class="cls-6" points="584.35 505.8 542.64 481.81 501.02 505.93 542.72 529.92 584.35 505.8"/>
        <polygon class="cls-6" points="625.97 481.68 584.27 457.69 542.64 481.81 584.34 505.8 625.97 481.68"/>
      </g>
      <g>
        <polygon class="cls-1" points="417.65 602.54 209.33 482.27 209.33 529.37 417.65 649.65 625.97 529.37 625.97 482.27 417.65 602.54"/>
        <line class="cls-1" x1="417.65" y1="649.65" x2="417.65" y2="602.54"/>
      </g>
    </g>
  </g>
</svg>